<?xml version="1.0" encoding="UTF-8" standalone="no"?>
<!-- Page 1 -->

<svg
   xmlns:dc="http://purl.org/dc/elements/1.1/"
   xmlns:cc="http://creativecommons.org/ns#"
   xmlns:rdf="http://www.w3.org/1999/02/22-rdf-syntax-ns#"
   xmlns:svg="http://www.w3.org/2000/svg"
   xmlns="http://www.w3.org/2000/svg"
   xmlns:sodipodi="http://sodipodi.sourceforge.net/DTD/sodipodi-0.dtd"
   xmlns:inkscape="http://www.inkscape.org/namespaces/inkscape"
   x="0"
   y="0"
   width="1310"
   height="832"
   viewBox="0 0 1310 832"
   version="1.1"
   style="display: block;margin-left: auto;margin-right: auto;"
   id="svg48"
   sodipodi:docname="1.svg"
   inkscape:version="0.92.2 5c3e80d, 2017-08-06">
  <metadata
     id="metadata52">
    <rdf:RDF>
      <cc:Work
         rdf:about="">
        <dc:format>image/svg+xml</dc:format>
        <dc:type
           rdf:resource="http://purl.org/dc/dcmitype/StillImage" />
      </cc:Work>
    </rdf:RDF>
  </metadata>
  <sodipodi:namedview
     pagecolor="#ffffff"
     bordercolor="#666666"
     borderopacity="1"
     objecttolerance="10"
     gridtolerance="10"
     guidetolerance="10"
     inkscape:pageopacity="0"
     inkscape:pageshadow="2"
     inkscape:window-width="1321"
     inkscape:window-height="886"
     id="namedview50"
     showgrid="false"
     inkscape:zoom="0.49465649"
     inkscape:cx="637.60632"
     inkscape:cy="559.205"
     inkscape:window-x="0"
     inkscape:window-y="0"
     inkscape:window-maximized="0"
     inkscape:current-layer="svg48" />
  <defs
     id="defs16">
    <clipPath
       id="c0_1">
      <path
         d="M506.5,400.1L447.6,386.5l17.3,-75l59,13.6l-17.4,75Z"
         id="path2" />
    </clipPath>
    <clipPath
       id="c1_1">
      <path
         d="M252.4,735.9L232.3,641.1L350.2,616l20.2,94.9l-118,25Z"
         id="path5" />
    </clipPath>
    <clipPath
       id="c2_1">
      <path
         d="M554.9,457.2L520.2,394.6l31.4,-17.5l34.7,62.7l-31.4,17.4Z"
         id="path8" />
    </clipPath>
    <clipPath
       id="c3_1">
      <path
         d="M465.5,191l-20.8,-6.9L474.2,95.6l20.8,6.9L465.5,191Z"
         id="path11" />
    </clipPath>
    <style
       type="text/css"
       id="style14"><![CDATA[

.g0_1{
fill: #FFFFFF;
}
.g1_1{
fill: none;
stroke: #797979;
stroke-width: 1.5277778;
stroke-linecap: butt;
stroke-linejoin: miter;
stroke-miterlimit: 4;
}
.g2_1{
fill: none;
stroke: #797979;
stroke-width: 1.4886208;
stroke-linecap: butt;
stroke-linejoin: miter;
stroke-miterlimit: 4;
}
.g3_1{
fill: none;
stroke: #797979;
stroke-width: 1.4943806;
stroke-linecap: butt;
stroke-linejoin: miter;
stroke-miterlimit: 4;
}
.g4_1{
fill: none;
stroke: #797979;
stroke-width: 1.3362098;
stroke-linecap: butt;
stroke-linejoin: miter;
stroke-miterlimit: 4;
}
.g5_1{
fill: none;
stroke: #797979;
stroke-width: 1.4493722;
stroke-linecap: butt;
stroke-linejoin: miter;
stroke-miterlimit: 4;
}


]]></style>
  </defs>
  <path
     d="M711,307l65.3,-9.2l.5,58.9L711,307ZM1130.4,310.6l-52,18.9l33.7,84.2l18.3,-103.1ZM1131.3,309.8l-17.5,102.9l81.9,-62.9l-64.4,-40ZM1192.4,352.1l-78.6,57.8l70.5,-.9l8.1,-56.9ZM1194.9,348.3l56.5,61.9l-65.8,-2.6l9.3,-59.3ZM1183,409.9l20.4,34.4L1256,411.4l-73,-1.5ZM1113.6,410.3l3.7,47.3l73.4,-50.7l-77.1,3.4ZM1183,410.6l-64.4,47.6l88.8,-11L1183,410.6ZM1064.7,294.2l15,38.8l54.8,-21.2l-69.8,-17.6ZM1060,293l-85.6,2l41.5,90.9L1060,293ZM976.8,295.3l-21.1,40.9l61.4,49.5L976.8,295.3ZM1177.1,541.5l48.7,-69.4l17.8,92.6l-66.5,-23.2ZM1117.9,459.7l38.6,41.3l51.8,-57.4l-90.4,16.1ZM1254,409.9l-28.9,63l63.6,11.7L1254,409.9ZM1285.3,484l-41.5,80.4l-14,-87.4l55.5,7ZM1255.4,412.7l-53.9,37.5l26.1,25.5l27.8,-63ZM1156.8,502.1l71.4,-28.4l-24.1,-21.3l-47.3,49.7ZM1228.4,474.6l-72,28l21.8,41.1l50.2,-69.1ZM1061.1,294.2L1017,383.6l89.1,8.2l-45,-97.6ZM1285.2,485.3l-41.8,77.9l59.5,22.3L1285.2,485.3ZM1177.9,541.8l8.7,75.4l62.1,-52.7l-70.8,-22.7ZM1243.8,563.8L1184,618.2l40.3,50l19.5,-104.4ZM1242.5,562.4l58.6,25.2L1225.6,666l16.9,-103.6ZM1303.6,585.8l-.5,92.6l-73.2,-11.8l73.7,-80.8ZM1188.1,616.8l-17.3,59.3l57.3,-6.3l-40,-53ZM1302.6,677.3l-86.9,37.5l10.8,-47.7l76.1,10.2ZM1228.9,665.2l-58.6,14l47.5,42.3l11.1,-56.3ZM1300.4,676.4l-84.6,37.8l57.9,59.1l26.7,-96.9ZM1017.8,384.1l-.4,24.1l49.5,-20.3l-49.1,-3.8ZM1067.8,387.9l-18.4,40l-28.8,-18l47.2,-22ZM1068.1,389.6l21.1,44.6L1053.9,428l14.2,-38.4ZM1068,389l38.1,3.6l-15.6,46.8L1068,389ZM1106.2,395l-12.6,40.9l25.9,22.9L1106.2,395ZM1104.5,512.9l73.6,28.6l-55.2,65.3l-18.4,-93.9ZM1178.6,542.7L1122,607l67.6,13.6l-11,-77.9ZM1171.3,677.3l-22.5,84.6l74.6,-45.4l-52.1,-39.2ZM1222.1,718.9L1151,760.4l65.6,8.6l5.5,-50.1ZM1276.2,767.3l-66.4,3.9l13.1,-48.4l53.3,44.5ZM1151.2,759.5l-1.8,43.1l67.9,-33.7l-66.1,-9.4ZM1212,770.7l-41.7,87L1152.8,802L1212,770.7ZM1275.9,767.4l-40.5,89.7l-21.9,-86.3l62.4,-3.4ZM1210.9,776.6l-40.7,82.9l70.7,1.8l-30,-84.7ZM1153.4,800.4l-3.8,38.9l23.9,19l-20.1,-57.9ZM1147.5,837.9l-102,-31.2l-9,53.7l111,-22.5ZM1019.1,410.8l-19.4,50.9l57,-33.8l-37.6,-17.1ZM1060.8,430l-11.3,32.6l46.9,-25.9L1060.8,430ZM1058.9,430.4l-38.2,21.8l30.3,12.5l7.9,-34.3ZM996.1,467.4l53.1,-1.7l-30,-11.4l-23.1,13.1ZM997.5,468.6l3.8,27.4l52.4,-31.2m-3.7,.3l-4.1,48l-40.1,-14.5L1050,465.1ZM1094.6,437.8l-13.7,68.8l-29,-39l42.7,-29.8ZM1081.1,507.9l-37.4,6.3l7.6,-44.9l29.8,38.6ZM1045.6,511.6l-59.3,35.7l92.5,9.3l-33.2,-45ZM985.2,547.2l-39.6,63.5l127.8,15.2L985.2,547.2ZM989.2,550.5l83.3,76.7l5.8,-26L989.2,550.5ZM988.6,549.4l90.1,7.7l.1,49.8L988.6,549.4ZM1006,494.4l-22.4,55.1l66.7,-37.4L1006,494.4ZM1007.7,497.4l-90.5,-4.2l68.6,56.4l21.9,-52.2ZM919.2,493.4l27.9,118.4l42,-63.2L919.2,493.4ZM920.2,494.7l-92,82.2l123.9,39.3L920.2,494.7ZM1001.2,467.9l-85.9,25.6l89,3.6l-3.1,-29.2ZM964.1,449.5l-46,47.1L1008.2,469L964.1,449.5ZM1094.5,437.8l-13.7,70.4L1123,457.6l-28.5,-19.8ZM1082,507.2l-34.1,6.7l30.5,42.4l3.6,-49.1ZM1078.7,559.2l24.3,48.3l-22.8,.4l-1.5,-48.7ZM1154.3,755.2L1103.6,805l47.2,-3.8l3.5,-46ZM1153.5,801.4l-55.7,4.9l52.5,37.1l3.2,-42ZM1105.6,806l-57.8,1.4l98.5,34.1L1105.6,806ZM1121,460.1l-40.5,47.3l80.8,-3.4L1121,460.1ZM1160.3,505.1l-56.9,5.1l76.4,34.3l-19.5,-39.4ZM1082,506.8l-3.7,48.8l32.2,-44.4L1082,506.8ZM1108.3,510.3L1078,558.6l47.8,51.9L1108.3,510.3ZM1079.2,559.3l22.4,49.2l26.9,-1.8l-49.3,-47.4ZM1128.3,606.9l4.3,43.3l-56.9,-25l52.6,-18.3ZM1128.6,607.2l41.4,19.2l-36.8,25m55.2,-32.1l-60.5,-14l41.3,22.3l19.2,-8.3ZM1187.3,617.2l-54.6,34.1l41,28.3l13.6,-62.4ZM1073.8,623.1L1047.9,676L949.3,611.5l124.5,11.6ZM1073.3,624.2l6,62.1l-27.9,-10.5l21.9,-51.6ZM1073.6,624.5l58.3,27.9l-52.4,39.1l-5.9,-67ZM1136.7,652.6l-15,63.8l-39.1,-25.2l54.1,-38.6ZM1174.1,677.9l-54.4,38.5l17.5,-60.2l36.9,21.7ZM1173.4,676.1l-54,39l31.5,46.9l22.5,-85.9ZM1122.3,715.5l-25.2,26.1l57.1,20.9l-31.9,-47ZM1083.8,689.8l14.3,53.5l26.6,-26.6l-40.9,-26.9ZM1153.3,758.4L1102.7,804l-1.3,-59.9l51.9,14.3ZM1101.6,742.3l-38.1,24.9l45.3,37.2l-7.2,-62.1ZM1065.1,768.9l-17.7,39L1112,804l-46.9,-35.1ZM1036.3,752l10.1,61l24.5,-45.8L1036.3,752ZM1065.7,717.4l-31.6,32.1l40.1,18.6l-8.5,-50.7ZM1064.5,719.2l39.4,24.9l-34.7,23.1l-4.7,-48ZM1082.5,688.3l-20.5,31l42.2,25.6l-21.7,-56.6ZM1049.4,673.3l13.8,45.4l23.5,-29.5l-37.3,-15.9ZM1052.1,673.2l-19.3,43.2l35.6,2.3l-16.3,-45.5ZM1032.8,716.1l1.8,30.6l32.6,-27.1l-34.4,-3.5ZM1051.4,675.3l-71.9,27.9l54.8,14.9l17.1,-42.8ZM979.8,703.2l39.4,32.9L1037.5,719L979.8,703.2ZM1036,712.7l-18.9,26.5l22.8,15.4L1036,712.7ZM981.9,702.8l5.2,61.5l36.1,-27.8L981.9,702.8ZM989.9,766.3l30.9,9.5l2.1,-34.5l-33,25ZM1020.5,740.4l-1.5,37.2l24.3,-30.7l-22.8,-6.5ZM1040.2,747.3l-21.1,28.4l30.8,38.1l-9.7,-66.5ZM982.3,703.2l-11.5,80.1l22.3,-17.9L982.3,703.2ZM973.1,782.5l41,49.1L996.7,766.7l-23.6,15.8ZM991.4,765.2l30.8,11.2l-7.7,57.9L991.4,765.2ZM1020.2,772.7l28.1,37l-31.8,24.6l3.7,-61.6ZM1049.8,809.6l-36,23l26.3,25.4l9.7,-48.4ZM1015.1,833l-10.2,42.8l39.6,-16.7m-29.7,-28.2l-34.6,21.3l26.5,28.9l8.1,-50.2ZM971,781l9.7,73l40.4,-23.7L971,781ZM975,784.7l-59.6,25.4l69.2,46.4L975,784.7ZM920.5,810.7l22,55.8L988.8,853L920.5,810.7ZM926.9,681.1L893.2,805.6l84.4,-22.7L926.9,681.1ZM925.4,684.4l59.5,17.4L976.1,787L925.4,684.4ZM949.4,609.8l34.8,97.5l67.6,-33.7L949.4,609.8ZM950.8,606.7l-26.7,83.5l61.5,14L950.8,606.7ZM954,612.2l-124.4,5.6l94,70L954,612.2ZM836.8,619.5l-5.4,-43.8l125.1,38.1l-119.7,5.7ZM782.8,561.2l50.8,62.2l.2,-48.2l-51,-14ZM846,440.4l-50.6,48.5L925,498.5L846,440.4ZM918.5,497.1L798.1,491l35.1,83.5l85.3,-77.4ZM802.7,488.9l-25.1,72.8l59.9,13.8L802.7,488.9ZM837.6,615.1l-23.7,60.8l119,18.1L837.6,615.1ZM924.3,691.1l-95,79L822,676.8l102.3,14.3ZM925,688.3l-94.8,80.3l65,40.7L925,688.3ZM778.9,559.3l34.9,119.9l24.8,-57.9l-59.7,-62ZM818.7,674.2l-25.8,63.7l38.5,33L818.7,674.2ZM894.4,805.2l-14.9,21l44.6,-13.6l-29.7,-7.4ZM978.9,297.2L931,299.8l29,39.5l18.9,-42.1ZM961.3,332.2l-2.8,65l66.6,-12.7L961.3,332.2ZM1019.2,383.6L957.9,397l63.5,14.5l-2.2,-27.9ZM1019.4,410.2l-56.7,38.4l-6.3,-48l63,9.6ZM1019.9,412.1l-52.4,36.7l35.1,18.1l17.3,-54.8ZM967.2,445.5l-47.6,49.9l-19,-65.6l66.6,15.7ZM960.3,394.1l-60.8,33.5l64.4,18.7l-3.6,-52.2ZM905.2,427l-38,4l54,65.2L905.2,427ZM873.2,429.4l-30.3,9.8L925,500.3L873.2,429.4ZM958.7,335.6L911.8,320.3l20.5,-21.4l26.4,36.7ZM912.9,320.6l47.3,80.5l5.7,-65.2l-53,-15.3ZM915.6,318l-43.9,66.4l89.1,11.1L915.6,318ZM874.4,384.5l33.8,40L963.3,397L874.4,384.5ZM876.8,380.8l-8,50.9l48.5,-4.5L876.8,380.8ZM788.5,410.1l8.6,83.6l52.4,-50.3l-61,-33.3ZM849,387.6l-24.6,21.6l23.2,36.3L849,387.6ZM828.2,408.7l-42.8,-1.3L847.3,444L828.2,408.7ZM877.2,384.4l-28.9,-.3l20.5,47.6l8.4,-47.3ZM849.1,386.2L847,441.9l27.2,-12.1L849.1,386.2ZM881.8,333.4l-6.5,47.1l41,-59.7l-34.5,12.6ZM883.5,333.2l-34,51.4l29.9,2.2l4.1,-53.6ZM792.6,408.9l-63.4,4l69.9,80.2l-6.5,-84.2ZM774.3,348.3l-46.2,62.9L780,383.3l-5.7,-35ZM792.3,411.7L781.1,383.5l-47.5,27l58.7,1.2ZM773.8,350.6l44.3,1.1L793.8,410l-20,-59.4ZM816.8,352.3l29.9,37.4l-17.4,21.4L816.8,352.3ZM817.5,352.2l-21.7,58.6l34.4,1.3L817.5,352.2ZM714.1,454.2L696.2,579.5l88.2,-19.1L714.1,454.2ZM714.6,458.5l92.1,34.3l-24.1,68.4l-68,-102.7ZM726.5,412.3l-15.2,47.3L804,494.7L726.5,412.3ZM779.9,562.1L682.1,671.8l132,5.8L779.9,562.1ZM783.7,562.6l-102,110.1L691,582.6l92.7,-20ZM691.7,578.9L571.8,649.7l110.3,23l9.6,-93.8ZM603.6,494.5l-43.7,58.9l136,29.7L603.6,494.5ZM603.2,498.4l55.2,-17.3l38.3,102.3l-93.5,-85ZM657.7,481.6l58.2,-27.2L697.2,579.1L657.7,481.6ZM559.8,555.6l11,95L693.1,580.4L559.8,555.6ZM815.5,676.4L683.7,670.6l107.6,68.5l24.2,-62.7ZM686.4,670.2L692.1,780L794.6,736.7L686.4,670.2ZM791.6,733.5l.9,42.8L697.1,781l94.5,-47.5ZM791.1,735.1l40.3,35.3l-38.1,8.4l-2.2,-43.7ZM706,305.3l21.3,103.9l49.5,-59.4L706,305.3ZM726.7,408.9L669,458.7l44.6,-1.6l13.1,-48.2ZM632.8,412.2l35.5,45L729,410.1l-96.2,2.1ZM630.6,412.1l-17.8,45.7l59.3,-.5L630.6,412.1ZM634.2,410l-53.5,23l32.6,26.1L634.2,410ZM665.5,459.2l-38.4,14.4l34.6,10.7l3.8,-25.1ZM707.7,457.1l-39.6,.1l-6,22.1l45.6,-22.2ZM613.3,457.5l17.8,15.3L669.4,459l-56.1,-1.5ZM626.2,410.3L582.4,377.5l-8.1,53.1l51.9,-20.3ZM584,317.8l-10.6,52.8l48.1,30.6L584,317.8ZM593.1,323.8l52.1,8.9l-11.9,76.8L593.1,323.8ZM649.7,338L638,413.7l91,-2.5L649.7,338ZM705.6,303.4l-60.4,35.8l82.4,73.2l-22,-109ZM670.9,296.2l-22.8,42.5l61.4,-36.5l-38.6,-6ZM631.5,278.3l-.4,63.1l26.6,-40.9L631.5,278.3ZM650.7,276.7l27.5,.7l-3.3,24.5L650.7,276.7ZM678.7,276.9l27.5,26.9L675.4,299l3.3,-22.1ZM618.7,258l-51.9,56l54.8,12l-2.9,-68ZM589.7,257.5l-52.3,-3.4l6.9,61.1l45.4,-57.7ZM522.5,207.4l-68.3,6.7l69.7,55.5l-1.4,-62.2ZM440.7,231.9l5.4,85.1L512,283.7L440.7,231.9ZM563.2,298.7L501.3,332l49.3,22.4l12.6,-55.7ZM377.5,267.8l-44.7,52.6l54.1,34.7l-9.4,-87.3ZM434.7,187.2l-60.9,19.4l16,37.3l44.9,-56.7ZM435.7,303.8l-47.2,50.6l46.2,20.5l1,-71.1Z"
     class="g1_1"
     id="path22" />
  <g
     clip-path="url(#c0_1)"
     id="g26">
    <path
       d="M466.5,314.8l-13.6,69.9l60.2,-26.1L466.5,314.8Z"
       class="g2_1"
       id="path24" />
  </g>
  <path
     d="M510.7,371.2l7.6,30.4l-54.5,12.2l46.9,-42.6ZM538.3,340.9l11.3,31l43.7,-6.5l-55,-24.5ZM564.2,367.5l-39.1,6.3l33,50.9l6.1,-57.2ZM406.7,373.9l-24.5,52.5l89.5,4.2l-65,-56.7ZM368.6,407l-30.4,45.7l34.3,-11.9L368.6,407ZM407.9,605.2l-97.7,78.6L423.6,656.2l-15.7,-51ZM444.9,659.7l14.7,43L336.9,687.4l108,-27.7ZM460.6,707.8l-101,64.5L335.3,697.1l125.3,10.7ZM457,711.3l14,48.3L365.6,775.2L457,711.3ZM470.8,759.3L360.4,773.5l25.1,70.6l85.3,-84.8ZM390.7,843.2L509.6,817.7L492.2,790.5L390.7,843.2ZM468.8,755.8l-86.5,88.9L490.8,792.4l-22,-36.6ZM509.1,814.6L425.5,903L390.9,845.8L509.1,814.6ZM509.8,815.8l26,35.2L427.9,905.1l81.9,-89.3ZM102.5,381.8l95.9,42.6L201,360.2l-98.5,21.6ZM234.9,380.7l15.3,40.1l-16,24.4l.7,-64.5ZM318.6,367.5l43.6,-2.9l-27.5,42.5L318.6,367.5ZM310.5,254.3l-23.1,71.1l45.9,-1.9L310.5,254.3ZM240.1,322.9l50.4,18l-27,51.2L240.1,322.9ZM133.5,276.9l46.8,69.3l27.9,-67.9l-74.7,-1.4ZM98.4,282.4L47.6,373.8L148,349.6L98.4,282.4ZM165.8,113.8l26,55.4l-67.2,2.6l41.2,-58ZM217,217.7l72.5,4.8l-50.3,53.8L217,217.7ZM351.4,207.4l-56.1,30.7l72.4,7.2L351.4,207.4ZM168.8,436.3l-15.7,68.3L268.3,480.9L168.8,436.3ZM315.5,510.8l6.7,98.4L204.1,534.7L315.5,510.8ZM164.2,549.4l2.1,67.5l112.6,2.5l-114.7,-70Z"
     class="g1_1"
     id="path28" />
  <g
     clip-path="url(#c1_1)"
     id="g32">
    <path
       d="M235.1,642.9l33.3,86.6L349,627.1L235.1,642.9Z"
       class="g3_1"
       id="path30" />
  </g>
  <path
     d="M302.8,398.5l-35.7,10l9.3,14.3l26.4,-24.3ZM359.4,472.3l24.5,10.2l.1,-29.7l-24.6,19.5ZM386.3,450.6l39.9,39.7l-35.9,-8l-4,-31.7ZM511.6,509.5l-35,15.8L474.8,503l36.8,6.5ZM465.5,492.1l-28.3,19.3l34.1,13.3l-5.8,-32.6ZM412.3,488.6l-6,21.5l32.9,-12.2l-26.9,-9.3ZM275.6,422.3l-18.2,26.3l21.7,8.3l-3.5,-34.6ZM1078.1,605.2l-4.1,18.9l55.2,-15.7l-51.1,-3.2ZM421.4,446l2.3,38l90.5,-32l-92.8,-6ZM524.6,412.7l7.1,69.7l-62.2,-57l55.1,-12.7Z"
     class="g1_1"
     id="path34" />
  <g
     clip-path="url(#c2_1)"
     id="g38">
    <path
       d="M558.9,451.5l13.9,-30.8L524.3,397l34.6,54.5Z"
       class="g4_1"
       id="path36" />
  </g>
  <path
     d="M591.2,476.4l-31.8,31.7l46.7,-14.2L591.2,476.4ZM563.7,503.2l-.7,50.6l43.7,-59.7l-43,9.1ZM564.9,503.1l-56.2,16.6l25.8,32l30.4,-48.6ZM563.4,505.6l-28.6,44l31.4,4l-2.8,-48ZM536.5,548.1l3.5,53.4l27.3,-49.1l-30.8,-4.3ZM562.3,556l-20.7,43.8l27.8,52L562.3,556ZM540.4,547.9L514.7,574l25.4,27.8l.3,-53.9ZM682.2,669l-58.3,45.7l37.5,59.5L682.2,669ZM660.4,769.1l32.4,10.3L682.8,667L660.4,769.1ZM795.5,775.5l-22,31l40.5,-.4L795.5,775.5ZM832.4,767.2l-37.2,9.1l19.4,32l17.8,-41.1ZM831.4,769.1l19.1,38.8l-31.2,1.3l12.1,-40.1ZM829.9,768.1l67.2,39l-46.3,4.4L829.9,768.1ZM847.7,805.3l19.6,57.2l18.6,-36.4L847.7,805.3ZM850,808.2l42.8,-1.9L884.5,825L850,808.2ZM574.4,648.3l48,64.1l57.8,-39.8L574.4,648.3ZM540.4,600.2l-7.2,56.2l43.9,-6.7L540.4,600.2ZM576.2,647.2L566.8,698l59.9,15.6L576.2,647.2ZM677.9,803.6l4.8,58.8l31.2,-56.9l-36,-1.9ZM713.8,805.8L745,835.2l-56.6,26.1l25.4,-55.5ZM713.5,806.4l61,1.4L746.2,837L713.5,806.4ZM770,808.3l40.1,46.3l-43.7,-8.4L770,808.3ZM774.6,809.4l-28.4,26l23.7,11.5l4.7,-37.5ZM661.5,771.5l14.8,31.6l25.5,-23.8l-40.3,-7.8ZM717.5,806.4L699,777.1l-16.6,24.1l35.1,5.2ZM771.6,805.2L699.7,778.3l92.8,.2l-20.9,26.7ZM702.3,779.8l15,27.1l60.8,4L702.3,779.8ZM770.2,807.6l39.4,47.8l9.2,-46.7l-48.6,-1.1ZM818.1,810.7L868,865l-54.1,-6.5l4.2,-47.8ZM852.5,810l-36.6,-1.8l52.2,60.7L852.5,810ZM882.4,822.7l29.5,38l-29.7,30.6l.2,-68.6ZM922.4,812.7l-40,10.3l30,42.9l10,-53.2ZM921.8,811.7l22.4,53.8l-30.8,-2.9l8.4,-50.9ZM894.9,804.3l-8.6,21.9l38.8,-13.5l-30.2,-8.4ZM566.1,698l56.8,56.2l2,-43.5L566.1,698ZM622.9,711.1l.7,40.7l39,22L622.9,711.1ZM567.1,698.7l-68.6,-5.4L531,750.2l36.1,-51.5ZM568,696.4l-37.6,53.2L581,730.1L568,696.4ZM568.5,700.4l10.8,30.7l48.8,29.6L568.5,700.4ZM582.3,731.4l-10.2,55L549.4,767.7l32.9,-36.3ZM530.4,749.6l20.2,19l25.6,-36l-45.8,17ZM530.5,746.1l-21,28.5l45.1,-5.4L530.5,746.1ZM505.8,778.2l41.9,12.3l6,-17.8l-47.9,5.5ZM507,776.5L486.6,751l41.6,-3.3L507,776.5ZM506.4,775.6l1.8,31.3l43,-14.8L506.4,775.6ZM508.9,813.7L490.7,789.8l18.2,-20.1v44ZM489.7,752.3l-.6,39.4l22.8,-19.2L489.7,752.3ZM492.6,749.3l-24,8.9l20.7,31.9l3.3,-40.8ZM458.6,707.8l12.5,48.6l25.6,-9.7L458.6,707.8ZM496.3,692.2l3.4,56.6L533,745.9L496.3,692.2ZM498.9,692.7l-39.7,15l40.4,45.1l-.7,-60.1ZM597.3,786.6l48,52.1l18,-67.5l-66,15.4ZM622.4,751.3l-26.7,36l67.6,-17.2L622.4,751.3ZM580,729.8l16.7,59.6l26.5,-36.3L580,729.8ZM571.8,784.9l24.7,1L581.8,733.5l-10,51.4ZM572.3,787.7l-24.5,6.2l5.8,-18.6l18.7,12.4ZM549.7,793.1l6,40.2l39.8,-11.8L549.7,793.1ZM588.4,819.5L600,786.6l-44.4,7.8l32.8,25.1ZM588.5,818.8l38,3L599.9,791.5l-11.4,27.3ZM591.3,820l17.2,39.6l24.9,-35L591.3,820ZM592.9,822.2l-35,11.2l52.4,34.4L592.9,822.2ZM557.1,833.3l-52.5,-21l46.2,-16.7l6.3,37.7ZM560.9,832.1l-24.3,20.1L512.3,814.6l48.6,17.5ZM556.1,829.5l60.3,44.1l-11.1,26.9l-49.2,-71ZM645.9,838.3l33,-32.5L665.4,774.6l-19.5,63.7ZM862.3,866l21.1,27l2.5,-70.8L862.3,866ZM631.6,472.6l-27.5,23l58.9,-11l-31.4,-12ZM632.4,473.3L612.7,456.8l-10.1,43.1l29.8,-26.6ZM615.9,457.3l-27.1,17l15.8,21.9l11.3,-38.9ZM544.4,449.9l-46.3,69.4L461.8,484.8l82.6,-34.9ZM583.1,434.3l-20.2,68.5l30.3,-29.7L583.1,434.3ZM586.1,432.7l29.1,25.9L594,478.9l-7.9,-46.2ZM545.4,447.8l8.9,55.9l28.9,-78.5l-37.8,22.6ZM554.4,452.3l-41.1,68.8l51.6,-18.7L554.4,452.3ZM375.7,491.1l57.8,23.7l-20.9,39L375.7,491.1ZM311.2,418.8l6.1,97.5l35.5,-34.5l-41.6,-63ZM480.1,537.2l56,17.5L513.2,525.6l-33.1,11.6ZM458.5,534.9l-19.9,39.9l75.5,-24.4L458.5,534.9ZM369.9,529.8l3.2,76.2L335.8,563.4l34.1,-33.6ZM428.4,556.4l26.9,70.2l-23.4,4.9l-3.5,-75.1ZM378.3,556.5l17,58.9l27.9,-12.5L378.3,556.5ZM452.9,578.5l38.7,13.8l-14.4,59.8L452.9,578.5ZM469.1,577.1l67.4,-24.5L516,575.8l-46.9,1.3ZM464.5,576.5l53.8,1.9l-9.1,17.1l-44.7,-19ZM517.5,575.6l23,25.4l-31.7,-6.6l8.7,-18.8ZM511,591l20.1,66L544,601L511,591ZM509.6,593.1l-14.8,61.7l39.4,7.8L509.6,593.1ZM449,667.6l50.5,25.3l-39.7,17.4L449,667.6ZM454.7,639.4l26.7,41L434.9,655.7l19.8,-16.3ZM471.6,653.5L498.7,649l4,49.1L471.6,653.5ZM496.4,651.4l39.4,9.9l-34.5,36.5l-4.9,-46.4ZM573,646.8l-39.8,10.9L567,702.9l6,-56.1ZM531.9,659.7l-27.1,33.9m28.1,-34.1l-27.8,36.1l63.1,5.6L532.9,659.5ZM626,822.1l23.9,16.7l-42.2,20.9L626,822.1ZM644,838.5l42.6,21.8l-5,-50.8l-37.6,29ZM773.4,296.7l5,56.5l40.3,-32.7L773.4,296.7ZM813.4,316.4l8.4,41.6l-40,-10l31.6,-31.6ZM815.5,319l34.9,42.9l-29.5,-1.2L815.5,319ZM820.3,356.4l27.2,33l9.8,-23l-37,-10ZM844.1,309.8l-28.5,13.1l41,46.2L844.1,309.8ZM846.7,309l37.1,23.5l-24.2,35.1L846.7,309ZM878.7,285.2l-34.2,24.7l38.3,24.6l-4.1,-49.3ZM877.9,284.4l39.4,37.3L887.2,335l-9.3,-50.6ZM877.5,283.8L935.3,300l-21.5,26.8l-36.3,-43ZM881.4,284.2l37.5,-41l17.6,60l-55.1,-19ZM921,240.9l40,13.7l-25.9,43.7L921,240.9ZM950.5,212.8l-30.4,28l45,15.4L950.5,212.8ZM951.8,211.8l42.6,1.2l-32.3,39.5L951.8,211.8ZM968.2,166.4l-19,44.8l51.7,-.1L968.2,166.4ZM999.9,205.5l7.7,-43.3l-38.1,2.3l30.4,41ZM976.2,107.3L967,162.6h45.7L976.2,107.3ZM977.8,108.8h32.3l1,50.9L977.8,108.8ZM988.3,72.1l-16.7,34.2l42.3,1.4L988.3,72.1ZM951.2,49.5l37.8,21l-14.5,29l-23.3,-50ZM949.2,47.8L931.1,20.6l37.4,23.7l-19.3,3.5ZM973,44.6L949.2,48l42.6,26.9L973,44.6ZM947.1,46.8L903.6,21.3l30.7,.1l12.8,25.4ZM933.5,18.8L882.6,13l17.7,9.5l33.2,-3.7ZM883.1,12.4l-32.7,4.3l53.5,11.5L883.1,12.4ZM633.2,64l-12.9,89.5L654,139.6L633.2,64ZM653.3,139.3l9.4,44l-41.2,-28l31.8,-16ZM618.8,152.3l17.3,45.1l26.7,-16.8l-44,-28.3ZM663.3,178.3l-27.4,18.2L683,208.7L663.3,178.3ZM636,197.3l18.8,50.9l32.8,-40.8L636,197.3ZM686.2,206.3l-8.1,45.8l-20.7,-4.7l28.8,-41.1ZM684.2,208.5L711,234.3l-31.4,17.6l4.6,-43.4ZM775,182.8l24.9,69.5L804.3,183L775,182.8ZM772.8,179l35.3,-19.5l-1.4,27.7L772.8,179ZM812.6,157.7l11.8,55L805.6,186.5l7,-28.8ZM825.8,208.2L800,246.9l7.8,-58.4l18,19.7ZM824.9,206.3l8.7,47.1l-30.1,-6.9l21.4,-40.2ZM802.9,244.7l5.7,36.6l27.2,-31.2l-32.9,-5.4ZM835.6,250.5l1.9,50L812.9,280.3l22.7,-29.8ZM808.3,276.2L817,323l32.8,-14.3L808.3,276.2ZM799.9,241.2l-22,55.4l36.6,-15.7L799.9,241.2ZM776,296.1l36.4,-13.5l7.3,42.9L776,296.1ZM712.2,233l-16.7,34.2L682,255.4L712.2,233ZM713.8,233.3l-1.4,42l-13.2,-10l14.6,-32ZM710.5,233.9L738,252.1l-21,26.6l-6.5,-44.8ZM738.3,249.3l14.3,34.3l-31.4,-7.5l17.1,-26.8Z"
     class="g1_1"
     id="path40" />
  <g
     clip-path="url(#c3_1)"
     id="g44">
    <path
       d="M475.5,99.5L487.4,118l-31,68.3L475.5,99.5Z"
       class="g5_1"
       id="path42" />
  </g>
  <path
     d="M530.3,69.8l6.3,83.9L526,141.4l4.3,-71.6ZM521.4,136.6l8.7,57.6l21.4,-17.9L521.4,136.6ZM549.2,179.3l25.9,22.4l-47,-5.8l21.1,-16.6ZM529,192.3l23.4,31.6L579,202.6L529,192.3ZM577,200.8l-27.1,21.5l45.6,22.8L577,200.8ZM578.7,200.8l36.9,31.7L598.3,244L578.7,200.8ZM597.8,242.3l41.2,28L619.3,234.2l-21.5,8.1ZM619,233.1l39.2,14.2l-21.7,23.5L619,233.1ZM659.4,246.6l-7.1,32.8l-11.4,-9.2l18.5,-23.6ZM657.7,248.6l24,5l-26.6,29.3l2.6,-34.3ZM660.8,276.6L701.2,267L680.8,256.6l-20,20ZM676.9,277.4l27.6,24.7l-.6,-32.4l-27,7.7ZM722.5,276.5l-17.1,28l1.9,-34.3l15.2,6.3ZM722.6,276.5l33.6,9.9l-47.8,23.8l14.2,-33.7ZM712.4,304.7l43.9,-22.1l24,14.7l-67.9,7.4ZM751.2,282.6h29.9v18.9L751.2,282.6Z"
     class="g1_1"
     id="path46" />
</svg>
